<?xml version="1.0" encoding="utf-8"?>
<!-- Generator: Adobe Illustrator 22.0.1, SVG Export Plug-In . SVG Version: 6.00 Build 0)  -->
<svg version="1.1" id="Layer_1" xmlns="http://www.w3.org/2000/svg" xmlns:xlink="http://www.w3.org/1999/xlink" x="0px" y="0px"
	 viewBox="0 0 50 50" style="enable-background:new 0 0 50 50;" xml:space="preserve">
<g>
	<polygon points="17.2,29.7 13.6,33.3 16,33.3 19.7,29.7 	"/>
	<polygon points="36.5,28.3 34.2,25.2 33.5,24.2 32.7,23.2 32.7,23.2 19.1,23.2 18,21.7 19,20.3 32.8,20.3 36.4,16.7 21.7,16.7 
		17.2,16.7 17.1,16.7 17.1,16.7 13.5,21.7 15,23.8 15,23.8 16.5,25.8 17.3,26.8 17.3,26.8 30.8,26.8 32,28.3 31,29.7 21.9,29.7 
		18.3,33.3 28.2,33.3 32.8,33.3 32.8,33.3 32.8,33.3 36.5,28.3 36.5,28.3 	"/>
</g>
</svg>
