<?xml version="1.0" encoding="utf-8"?>
<!-- Generator: Adobe Illustrator 22.0.1, SVG Export Plug-In . SVG Version: 6.00 Build 0)  -->
<svg version="1.1" id="Layer_1" xmlns="http://www.w3.org/2000/svg" xmlns:xlink="http://www.w3.org/1999/xlink" x="0px" y="0px"
	 viewBox="0 0 50 50" style="enable-background:new 0 0 50 50;" xml:space="preserve">
<style type="text/css">
	.st0{fill:#FFFFFF;}
</style>
<rect class="st0" width="50" height="50"/>
<g>
	<polygon points="12.9,32.3 7.2,38 11.1,38 16.7,32.3 	"/>
	<polygon points="43,30.1 39.4,25.4 38.2,23.8 36.9,22.2 36.9,22.2 15.9,22.2 14.1,19.8 15.7,17.7 37.1,17.7 42.8,12 19.9,12 
		12.8,12 12.8,12 12.8,12.1 7,19.8 9.5,23.1 9.5,23.1 11.8,26.2 13,27.8 13,27.8 34.1,27.8 35.8,30.2 34.3,32.3 20.2,32.3 14.5,38 
		30.1,38 37.1,38 37.2,38 37.2,37.9 42.9,30.2 42.9,30.2 	"/>
</g>
</svg>
